<svg width="37" height="37" viewBox="0 0 37 37" fill="none" xmlns="http://www.w3.org/2000/svg">
<path d="M9.22058 33.412C7.05011 33.4096 4.96923 32.5464 3.43448 31.0116C1.89973 29.4769 1.03646 27.396 1.03408 25.2255C1.03408 25.212 1.03408 25.198 1.03408 25.1845C1.03408 25.1575 1.03058 25.117 1.02758 25.0635C0.859575 22.0905 1.34558 14.0635 9.46708 3.778C9.54022 3.68563 9.64363 3.62205 9.75908 3.59848C9.87452 3.57492 9.99458 3.59288 10.0981 3.6492C10.2016 3.70552 10.2818 3.79658 10.3248 3.90632C10.3677 4.01606 10.3704 4.13742 10.3326 4.249C10.3096 4.317 8.09008 10.9655 9.60658 17.049C11.7426 17.1492 13.7545 18.0812 15.2123 19.6457C16.67 21.2101 17.4577 23.2828 17.407 25.4206C17.3563 27.5583 16.4712 29.5913 14.941 31.0849C13.4108 32.5785 11.3569 33.4141 9.21858 33.413L9.22058 33.412ZM2.03408 25.254C2.03961 26.6742 2.46579 28.0608 3.25881 29.2389C4.05183 30.4171 5.17613 31.3338 6.48977 31.8735C7.80341 32.4131 9.24748 32.5514 10.6397 32.271C12.0319 31.9905 13.3098 31.3039 14.312 30.2977C15.3143 29.2916 15.9959 28.011 16.271 26.6178C16.546 25.2245 16.4021 23.781 15.8573 22.4694C15.3126 21.1579 14.3915 20.0372 13.2103 19.2487C12.0291 18.4603 10.6407 18.0395 9.22058 18.0395C9.11108 18.0395 9.00462 18.0035 8.91754 17.9371C8.83047 17.8707 8.76759 17.7776 8.73857 17.672C7.58857 13.487 8.15258 9.097 8.72408 6.433C2.28208 15.457 1.87758 22.345 2.02808 25.0075C2.03487 25.0895 2.03687 25.1718 2.03408 25.254Z" fill="#D1D1D1"/>
<path d="M27.8136 33.412C25.6431 33.4096 23.5622 32.5464 22.0275 31.0116C20.4927 29.4769 19.6295 27.396 19.6271 25.2255C19.6271 25.212 19.6271 25.198 19.6271 25.1845C19.6271 25.1575 19.6236 25.117 19.6206 25.0635C19.4526 22.0905 19.9386 14.0635 28.0601 3.778C28.1332 3.68563 28.2366 3.62205 28.3521 3.59848C28.4675 3.57492 28.5876 3.59288 28.6911 3.6492C28.7946 3.70552 28.8749 3.79658 28.9178 3.90632C28.9607 4.01606 28.9634 4.13742 28.9256 4.249C28.9026 4.317 26.6831 10.9655 28.1996 17.049C30.3356 17.1492 32.3475 18.0812 33.8053 19.6457C35.263 21.2101 36.0507 23.2828 36.0001 25.4206C35.9494 27.5583 35.0643 29.5913 33.534 31.0849C32.0038 32.5785 29.9499 33.4141 27.8116 33.413L27.8136 33.412ZM20.6271 25.254C20.6326 26.6742 21.0588 28.0608 21.8518 29.2389C22.6448 30.4171 23.7691 31.3338 25.0828 31.8735C26.3964 32.4131 27.8405 32.5514 29.2327 32.271C30.6249 31.9905 31.9028 31.3039 32.905 30.2977C33.9073 29.2916 34.589 28.011 34.864 26.6178C35.139 25.2245 34.9951 23.781 34.4503 22.4694C33.9056 21.1579 32.9845 20.0372 31.8033 19.2487C30.6221 18.4603 29.2338 18.0395 27.8136 18.0395C27.7041 18.0395 27.5976 18.0035 27.5106 17.9371C27.4235 17.8707 27.3606 17.7776 27.3316 17.672C26.1816 13.487 26.7456 9.097 27.3171 6.433C20.8751 15.457 20.4701 22.345 20.6206 25.0075C20.6276 25.0895 20.6297 25.1718 20.6271 25.254Z" fill="#D1D1D1"/>
</svg>
